<?xml version="1.0" encoding="utf-8"?>
<!-- Generator: Adobe Illustrator 24.0.2, SVG Export Plug-In . SVG Version: 6.00 Build 0)  -->
<svg version="1.1" xmlns="http://www.w3.org/2000/svg" xmlns:xlink="http://www.w3.org/1999/xlink" x="0px" y="0px"
	 viewBox="0 0 2372 1203.2" style="enable-background:new 0 0 2372 1203.2;" xml:space="preserve">
<style type="text/css">
	.st0{fill:#0A192F;}
	.st1{fill:#FED851;}
	.st2{fill:#FBC241;}
	.st3{fill:#DEDFE0;}
	.st4{fill:#FFFFFF;}
	.st5{fill:#0E303F;}
	.st6{fill:#4B515D;}
	.st7{fill:#EDEDEE;}
	.st8{fill:#3DA6CC;}
	.st9{fill:#888A8C;}
	.st10{fill:#FD6120;}
	.st11{fill:#A6DAE9;}
	.st12{fill:#72A8D0;}
	.st13{fill-rule:evenodd;clip-rule:evenodd;fill:#FFFFFF;}
	.st14{fill-rule:evenodd;clip-rule:evenodd;fill:#3DA6CC;}
	.st15{fill:#FEBF46;}
	.st16{fill:#7BD3F7;}
	.st17{fill:#FFAE00;}
	.st18{fill:#D6FFFA;}
	.st19{fill:#404041;}
	.st20{fill:#6D6E70;}
	.st21{fill:#808184;}
	.st22{fill:none;stroke:#404041;stroke-width:4;stroke-miterlimit:10;}
	.st23{fill:#77756F;}
</style>
<g id="Layer_1">
	<g>
		<rect y="1.5" class="st0" width="2372" height="1203.2"/>
		<path class="st1" d="M1927,1040c0,14-15.8,25.4-35.3,25.4H480.4c-19.5,0-35.4-11.4-35.4-25.4s15.8-25.4,35.3-25.4h1411.3
			C1911.2,1014.6,1927,1026,1927,1040L1927,1040z"/>
		<path class="st2" d="M480.4,1065.4h1411.3c19.5,0,35.3-11.4,35.3-25.4H445C445,1054,460.9,1065.4,480.4,1065.4z"/>
		<path class="st3" d="M958.5,939.1c-43.4,0-147.8-1.1-147.8-1.1v65.5h165.5v-64.3H958.5z"/>
		<path class="st4" d="M999,1002.3H787.8c-5.4,0-9.7,4-9.7,8.9v3.3h230.6v-3.3C1008.7,1006.3,1004.4,1002.3,999,1002.3z"/>
		<path class="st4" d="M613.8,914.1v35.4c0,6.8,6.2,12.4,13.9,12.4h531.5c7.7,0,13.9-5.5,13.9-12.4v-35.4H613.8z"/>
		<path class="st5" d="M922.7,935.9H873c-2.3,0-4.1-1.9-4.1-4.1s1.9-4.2,4.1-4.2h49.7c2.3,0,4.1,1.9,4.1,4.2S925,935.9,922.7,935.9
			L922.7,935.9z"/>
		<path class="st6" d="M1173.1,914.1V614c0-6.8-6.2-12.4-13.9-12.4H627.7c-7.7,0-13.9,5.5-13.9,12.4v300.1H1173.1z"/>
		<rect x="636.6" y="620.9" class="st4" width="513.6" height="272.7"/>
		<rect x="661" y="657.8" class="st7" width="459.3" height="222.6"/>
		<rect x="997" y="769.9" class="st8" width="6.7" height="52.5"/>
		<path class="st8" d="M1054.2,821.9h-47.1V812h47.1c1.6-0.1,2.9,1.1,3,2.6v4.6C1057.1,820.8,1055.8,822,1054.2,821.9z"/>
		<path class="st8" d="M1042,798.1h-35v9.9h35c1.6,0.1,2.9-1.1,3-2.6v-4.6C1044.9,799.2,1043.5,798,1042,798.1z"/>
		<path class="st8" d="M1057.2,791.6v-4.6c-0.1-1.6-1.4-2.7-3-2.6H1007v9.9h47.2C1055.8,794.3,1057.1,793.1,1057.2,791.6z"/>
		<path class="st8" d="M1036.4,780.4h-29.3v-9.9h29.3c1.6-0.1,2.9,1.1,3,2.6v4.6C1039.3,779.3,1037.9,780.5,1036.4,780.4z"/>
		<rect x="994" y="858" class="st4" width="90.3" height="9.1"/>
		<path class="st9" d="M1084.5,867.4h-90.8v-9.6h90.8V867.4z M994.3,866.8h89.7v-8.5h-89.7L994.3,866.8z"/>
		<rect x="994.5" y="841.5" class="st4" width="90.3" height="9.1"/>
		<path class="st9" d="M1085,850.8h-90.8v-9.6h90.8V850.8z M994.8,850.3h89.7v-8.5h-89.8L994.8,850.3z"/>
		<rect x="966.5" y="710.3" class="st10" width="90.1" height="30.2"/>
		<rect x="981.6" y="720.2" class="st4" width="59.9" height="10.3"/>
		<rect x="683.3" y="673.2" class="st11" width="102.2" height="7.2"/>
		<rect x="1023.2" y="673.2" class="st11" width="63.4" height="7.2"/>
		<rect x="943.1" y="673.2" class="st11" width="63.4" height="7.2"/>
		<rect x="863.1" y="673.2" class="st11" width="63.4" height="7.2"/>
		<path class="st11" d="M1107.2,627.5H674.1c-7.2,0-13.1,4.7-13.1,10.4v19.8h459.3V638C1120.3,632.2,1114.5,627.5,1107.2,627.5z"/>
		<path class="st4" d="M687.8,643c0,3.2-3.3,5.8-7.3,5.8c-4,0-7.3-2.6-7.3-5.8s3.3-5.8,7.3-5.8C684.6,637.2,687.8,639.8,687.8,643z"
			/>
		<path class="st4" d="M708.3,643c0,3.2-3.3,5.8-7.3,5.8s-7.3-2.6-7.3-5.8s3.3-5.8,7.3-5.8C705,637.2,708.3,639.8,708.3,643z"/>
		<path class="st4" d="M728.7,643c0,3.2-3.3,5.8-7.3,5.8s-7.3-2.6-7.3-5.8s3.3-5.8,7.3-5.8S728.7,639.8,728.7,643z"/>
		<rect x="749.1" y="637.8" class="st4" width="352.1" height="10.5"/>
		<rect x="683.3" y="694.7" class="st12" width="101.6" height="89.3"/>
		<path class="st13" d="M734.1,704c24.7,0,21.4,38.2,0,38.2S709.4,704,734.1,704z"/>
		<path class="st13" d="M747.7,740.7c15.4,4.7,23.4,17.8,25.2,34h-77.6c1.9-16.2,9.8-29.3,25.2-34
			C728.1,748.1,740.1,748.1,747.7,740.7z"/>
		<path class="st13" d="M802.5,756.4h103.6c1.2-0.1,2.2,0.8,2.3,2v14.1c-0.1,1.2-1.1,2.1-2.3,2H802.5c-1.2,0.1-2.2-0.8-2.3-2v-14.1
			C800.3,757.2,801.3,756.3,802.5,756.4z"/>
		<path class="st9" d="M906.1,774.8H802.5c-1.3,0.1-2.5-1-2.6-2.3v-14.1c0.1-1.3,1.2-2.4,2.6-2.3h103.6c1.3-0.1,2.5,1,2.6,2.3v14.1
			C908.6,773.8,907.4,774.9,906.1,774.8z M802.5,756.6c-1,0-1.9,0.7-2,1.8v14.1c0.1,1,1,1.8,2,1.8h103.6c1,0,1.9-0.7,2-1.8v-14.1
			c-0.1-1-1-1.8-2-1.8H802.5z"/>
		<path class="st14" d="M801.1,744.3h40c0.5,0,0.9,0.3,0.9,0.8l0,0v5.5c0,0.5-0.4,0.8-0.9,0.8h-40c-0.5,0-0.9-0.3-0.9-0.8v-5.5
			C800.2,744.6,800.6,744.3,801.1,744.3L801.1,744.3z"/>
		<path class="st13" d="M802.5,716.3h103.6c1.2-0.1,2.2,0.8,2.3,2v14.1c-0.1,1.2-1.1,2.1-2.3,2H802.5c-1.2,0.1-2.2-0.8-2.3-2v-14.1
			C800.3,717.1,801.3,716.2,802.5,716.3z"/>
		<path class="st9" d="M906.1,734.7H802.5c-1.3,0.1-2.5-1-2.6-2.3v-14.1c0.1-1.3,1.2-2.4,2.6-2.3h103.6c1.3-0.1,2.5,1,2.6,2.3v14.1
			C908.6,733.7,907.4,734.8,906.1,734.7z M802.5,716.5c-1,0-1.9,0.7-2,1.8v14.1c0.1,1,1,1.8,2,1.8h103.6c1,0,1.9-0.7,2-1.8v-14.1
			c-0.1-1-1-1.8-2-1.8H802.5z"/>
		<path class="st14" d="M801.1,704.2h40c0.5,0,0.9,0.3,0.9,0.8l0,0v5.5c0,0.5-0.4,0.8-0.9,0.8h0h-40c-0.5,0-0.9-0.3-0.9-0.8v0V705
			C800.2,704.5,800.6,704.2,801.1,704.2L801.1,704.2z"/>
		<rect x="681.9" y="789.5" class="st10" width="103.1" height="79.8"/>
		<rect x="800.2" y="796.5" class="st10" width="91.4" height="8.3"/>
		<rect x="800.2" y="817.5" class="st11" width="165.2" height="5.1"/>
		<rect x="800.2" y="833.1" class="st11" width="140.4" height="5.1"/>
		<rect x="800.2" y="848.7" class="st11" width="155.6" height="5.1"/>
		<rect x="800.2" y="864.3" class="st11" width="121.1" height="5.1"/>
		
			<rect x="1019.6" y="926.6" transform="matrix(0.1687 -0.9857 0.9857 0.1687 -71.3757 1842.3696)" class="st15" width="73.8" height="73.8"/>
		
			<rect x="1079.2" y="928.8" transform="matrix(0.9831 -0.1833 0.1833 0.9831 -158.0769 220.9057)" class="st16" width="73.8" height="73.8"/>
		<path class="st6" d="M1256.2,778.9h324.2c6.7,0,12,5.4,12,12v204.8c0,6.7-5.4,12.1-12,12.1h-324.2c-6.7,0-12-5.4-12-12.1V791
			C1244.2,784.3,1249.6,778.9,1256.2,778.9z"/>
		<rect x="1262.2" y="802.8" class="st17" width="312.2" height="167.6"/>
		<rect x="1292.2" y="827.9" class="st7" width="248.7" height="135.9"/>
		<path class="st11" d="M1533.8,809.5h-234.5c-3.9,0-7.1,2.9-7.1,6.4v12.1h248.7v-12.1C1540.8,812.3,1537.7,809.5,1533.8,809.5z"/>
		<path class="st4" d="M1306.7,818.9c0.2,2.2-1.3,4.2-3.5,4.4c-2.2,0.2-4.2-1.3-4.4-3.5c-0.2-2.2,1.3-4.2,3.5-4.4c0.2,0,0.3,0,0.5,0
			C1304.8,815.2,1306.5,816.8,1306.7,818.9z"/>
		<path class="st4" d="M1317.7,818.9c0.2,2.2-1.3,4.2-3.5,4.4c-2.2,0.2-4.2-1.3-4.4-3.5c-0.2-2.2,1.3-4.2,3.5-4.4c0.1,0,0.3,0,0.4,0
			C1315.8,815.2,1317.6,816.8,1317.7,818.9L1317.7,818.9z"/>
		<path class="st4" d="M1328.8,818.9c0.2,2.2-1.3,4.2-3.5,4.4s-4.2-1.3-4.4-3.5c-0.2-2.2,1.3-4.2,3.5-4.4c0.1,0,0.3,0,0.4,0
			C1326.9,815.2,1328.7,816.8,1328.8,818.9L1328.8,818.9z"/>
		<rect x="1339.8" y="815.7" class="st4" width="190.7" height="6.4"/>
		<rect x="1350.7" y="840.8" class="st10" width="102.2" height="7.3"/>
		<rect x="1315.9" y="858.9" class="st10" width="171.9" height="7.3"/>
		<rect x="1315.9" y="871.7" class="st10" width="171.9" height="7.3"/>
		<rect x="1315.9" y="884.4" class="st10" width="171.9" height="7.3"/>
		<rect x="1315.9" y="897.1" class="st10" width="80.5" height="7.3"/>
		<rect x="1315.9" y="921.3" class="st10" width="36.3" height="11.1"/>
		<rect x="1361.2" y="921.3" class="st10" width="36.3" height="11.1"/>
		<rect x="1406.3" y="921.3" class="st10" width="36.3" height="11.1"/>
		<rect x="1451.5" y="921.3" class="st10" width="36.3" height="11.1"/>
		<rect x="1315.9" y="939.9" class="st10" width="36.3" height="11.1"/>
		<rect x="1406.3" y="939.9" class="st10" width="36.3" height="11.1"/>
		<rect x="1361.2" y="939.9" class="st10" width="36.3" height="11.1"/>
		<rect x="1451.5" y="939.9" class="st10" width="36.3" height="11.1"/>
		<circle class="st18" cx="1418.3" cy="791.3" r="4.4"/>
		<path class="st13" d="M1183.7,992.5H1653v13.5c0,4.8-3.9,8.7-8.7,8.7h-451.9c-4.8,0-8.7-3.9-8.7-8.7V992.5z"/>
		<rect x="1370.9" y="1004.1" class="st5" width="94.8" height="6"/>
		<rect x="1183.7" y="992.5" class="st3" width="469.3" height="6.8"/>
		<path class="st19" d="M521.7,778.3h27.2c18.3,0,33.1,14.8,33.1,33.1v119.1c0,18.3-14.8,33.1-33.1,33.1h-27.2
			c-18.3,0-33.1-14.8-33.1-33.1V811.4C488.6,793.1,503.4,778.3,521.7,778.3z"/>
		<polygon class="st19" points="535.3,1001.4 516.9,1001.4 526.1,959.4 535.3,917.5 544.5,959.4 553.6,1001.4 		"/>
		<path class="st19" d="M501.6,1001.4h67.3c3.2,0,5.8,2.6,5.8,5.8v3c0,3.2-2.6,5.8-5.8,5.8h-67.3c-3.2,0-5.8-2.6-5.8-5.8v-3
			C495.8,1004,498.4,1001.4,501.6,1001.4z"/>
		<circle class="st20" cx="535.3" cy="827.8" r="34.5"/>
		<path class="st21" d="M535.3,797.8c16.5,0,30,13.4,30,30c0,16.5-13.4,30-30,30s-30-13.4-30-30
			C505.3,811.2,518.7,797.8,535.3,797.8z"/>
		<path class="st22" d="M535.3,805.5c12.3,0,22.3,10,22.3,22.3c0,12.3-10,22.3-22.3,22.3s-22.3-10-22.3-22.3
			C513,815.4,523,805.5,535.3,805.5z"/>
		<circle class="st20" cx="535.3" cy="912.8" r="34.5"/>
		<path class="st21" d="M535.3,882.8c16.5,0,30,13.4,30,30c0,16.5-13.4,30-30,30s-30-13.4-30-30
			C505.3,896.2,518.7,882.8,535.3,882.8z"/>
		<path class="st22" d="M535.3,890.5c12.3,0,22.3,10,22.3,22.3c0,12.3-10,22.3-22.3,22.3s-22.3-10-22.3-22.3
			C513,900.4,523,890.5,535.3,890.5z"/>
		<path class="st19" d="M1835.6,777h27.2c18.3,0,33.1,14.8,33.1,33.1v119.1c0,18.3-14.8,33.1-33.1,33.1h-27.2
			c-18.3,0-33.1-14.8-33.1-33.1V810.1C1802.5,791.9,1817.3,777,1835.6,777z"/>
		<polygon class="st19" points="1849.2,1000.1 1830.9,1000.1 1840,958.2 1849.2,916.2 1858.4,958.2 1867.6,1000.1 		"/>
		<path class="st19" d="M1815.6,1000.1h67.3c3.2,0,5.8,2.6,5.8,5.8v3c0,3.2-2.6,5.8-5.8,5.8h-67.3c-3.2,0-5.8-2.6-5.8-5.8v-3
			C1809.8,1002.7,1812.4,1000.1,1815.6,1000.1z"/>
		<circle class="st20" cx="1849.2" cy="826.5" r="34.5"/>
		<circle class="st21" cx="1849.2" cy="826.5" r="30"/>
		<path class="st22" d="M1849.2,804.2c12.3,0,22.3,10,22.3,22.3s-10,22.3-22.3,22.3s-22.3-10-22.3-22.3S1836.9,804.2,1849.2,804.2z"
			/>
		<circle class="st20" cx="1849.2" cy="911.5" r="34.5"/>
		<circle class="st21" cx="1849.2" cy="911.5" r="30"/>
		<path class="st22" d="M1849.2,889.2c12.3,0,22.3,10,22.3,22.3s-10,22.3-22.3,22.3s-22.3-10-22.3-22.3S1836.9,889.2,1849.2,889.2z"
			/>
		<path class="st4" d="M971.6,1065.4v56.6c0,11.4,14.9,20.7,33.3,20.7h91l-2.6-2.8h-85.7c-17.3,0-31.4-8.7-31.4-19.5V1067"/>
		<path class="st4" d="M1100.5,1115.8h39.5c2.8,0,5,2.2,5,5v39.5c0,2.8-2.2,5-5,5h-39.5c-2.8,0-5-2.2-5-5v-39.5
			C1095.5,1118,1097.7,1115.8,1100.5,1115.8z"/>
		<path class="st23" d="M1120.2,1124.9c8.7,0,15.7,7,15.7,15.7s-7,15.7-15.7,15.7s-15.7-7-15.7-15.7S1111.6,1124.9,1120.2,1124.9z"
			/>
		<rect x="1090" y="1136.6" class="st23" width="21" height="8"/>
		<path class="st4" d="M1342.3,1067v53.3c0,10.8-14,19.5-31.4,19.5h-85.7l-2.7,2.8h91c18.4,0,33.3-9.3,33.3-20.7v-56.5"/>
		<path class="st4" d="M1178.6,1115.8h39.5c2.8,0,5,2.2,5,5v39.5c0,2.8-2.2,5-5,5h-39.5c-2.8,0-5-2.2-5-5v-39.5
			C1173.6,1118,1175.8,1115.8,1178.6,1115.8z"/>
		<path class="st23" d="M1198.3,1124.9c8.7,0,15.7,7,15.7,15.7s-7,15.7-15.7,15.7s-15.7-7-15.7-15.7S1189.7,1124.9,1198.3,1124.9z"
			/>
		<rect x="1207.6" y="1136.6" class="st23" width="21" height="8"/>
	</g>
</g>
<g id="Layer_2">
</g>
</svg>
